<?xml version="1.0" encoding="utf-8"?>
<svg id="master-artboard" viewBox="0 0 169.6909942626953 170.30943298339844" version="1.1" xmlns="http://www.w3.org/2000/svg" x="0px" y="0px" style="enable-background:new 0 0 1400 980;" width="169.6909942626953px" height="170.30943298339844px"><rect id="ee-background" x="0" y="0" width="169.6909942626953" height="170.30943298339844" style="fill: white; fill-opacity: 0; pointer-events: none;"/><defs><path id="text-path-0" d="M 778.8464965820312 213.4612274169922 A 100 18 0 0 1 988.3533935546875 213.4612274169922 A 100 18 0 0 1 778.8464965820312 213.4612274169922 Z" style="fill: none; stroke: red; stroke-width: 2;"/><path id="text-path-1" d="M 664.5464477539062 37.96122741699219 A 100 19 0 0 1 876.5812377929688 37.96122741699219 A 100 19 0 0 1 664.5464477539062 37.96122741699219" style="fill: none; stroke: red; stroke-width: 2;"/><path id="text-path-2" d="M 765.3650512695312 211.70851135253906 A 100 17 0 0 1 991.5017700195312 211.70851135253906 A 100 17 0 0 1 765.3650512695312 211.70851135253906" style="fill: none; stroke: red; stroke-width: 2;"/><path id="path-1" d="M 765.3650512695312 211.70851135253906 A 100 17 0 0 1 991.5017700195312 211.70851135253906 A 100 17 0 0 1 765.3650512695312 211.70851135253906" style="fill: none; stroke: red; stroke-width: 2;"/><path id="text-path-3" d="M 671.0057983398438 570.9327392578125 A 100 -30 0 0 0 836.5899658203125 570.9327392578125 A 100 -30 0 0 0 671.0057983398438 570.9327392578125 Z" style="fill: none; stroke: red; stroke-width: 2;"/><style id="ee-google-fonts">@import url(https://fonts.googleapis.com/css?family=Acme:400);</style></defs>


<path d="M 747.8585815429688 504.2118835449219 L 718.3665161132812 499.80194091796875 L 713.7261962890625 525.1544799804688 L 740.1721801757812 529.1089477539062 L 736.4545288085938 543.5579833984375 L 711.1162109375 539.7692260742188 L 710.2944946289062 544.3176879882812 L 706.5730590820312 580.56591796875 L 687.1885375976562 577.6673583984375 L 693.881103515625 544.2698974609375 L 701.4742431640625 482.1295166015625 L 751.5969848632812 489.62432861328125 L 747.8585815429688 504.2118835449219 ZM 782.6971435546875 565.2680053710938 L 784.3674926757812 565.08837890625 L 788.7522583007812 540.3978881835938 L 797.3943481445312 483.28619384765625 L 814.5066528320312 483.9801940917969 L 803.8859252929688 541.0230712890625 L 797.11572265625 580.1917114257812 L 771.5588989257812 584.77099609375 L 757.6785278320312 548.6683349609375 L 735.4082641601562 493.4733581542969 L 754.7999877929688 487.86749267578125 L 773.2459106445312 540.2351684570312 L 782.6971435546875 565.2680053710938 Z" transform="matrix(1, 0, 0, 1, -668.3160400390625, -453.3332824707031)" style="fill: rgb(51, 51, 51); white-space: pre; color: rgb(51, 51, 51);"/></svg>