<svg width="397" height="200" viewBox="0 0 397 200" fill="none" xmlns="http://www.w3.org/2000/svg">
<path d="M366.098 50.4552L345.598 61.9552L351.098 70.9552L360.098 66.4552C363.298 70.0552 360.431 76.6218 358.598 79.4552C356.764 81.1218 351.598 83.7552 345.598 80.9552C339.598 78.1552 335.764 71.4552 334.598 68.4552C332.098 64.9552 328.598 56.2552 334.598 49.4552C340.598 42.6552 347.098 46.6218 349.598 49.4552L361.098 42.4552C355.098 36.0552 349.931 34.1218 348.098 33.9552C345.931 32.6218 338.898 31.6552 328.098 38.4552C317.298 45.2552 317.264 58.2885 318.598 63.9552C319.431 67.1218 322.698 75.6552 329.098 84.4552C335.498 93.2552 346.431 95.1218 351.098 94.9552C353.764 95.2885 361.298 93.6552 370.098 84.4552C378.898 75.2552 371.098 57.9552 366.098 50.4552Z" fill="#120101" stroke="black"/>
<path d="M205 102.5L182.5 115L211.5 167.5L236 154C248 147 244.5 122 226 125L225.5 124C235 114 221 96.5 205 102.5Z" fill="#160101"/>
<path d="M257 142.5L232 98L242 97L241 85.5L245 93.5L263 126L275.5 118.5L280.5 123L286.5 126.5L257 142.5Z" fill="#160101"/>
<path d="M205 102.5L182.5 115L211.5 167.5L236 154C248 147 244.5 122 226 125L225.5 124C235 114 221 96.5 205 102.5Z" stroke="#160101"/>
<path d="M257 142.5L232 98L242 97L241 85.5L245 93.5L263 126L275.5 118.5L280.5 123L286.5 126.5L257 142.5Z" stroke="#160101"/>
<path d="M209 82.1551L198.5 71.6551C197.3 69.6551 196 70.4884 195.5 71.1551L193.5 73.1551C191.5 73.9551 193 75.4884 194 76.1551L200 82.1551C200.8 82.1551 203 84.6551 201.5 86.1551L194.5 92.6551C191.3 94.2551 193.5 96.6551 194.5 97.1551C197.5 99.6551 197.667 98.4884 198.5 97.6551L209 87.1551C212.2 85.5551 210.333 83.1551 209 82.1551Z" fill="black" stroke="black"/>
<path d="M161.5 71.6551L150 82.6551C148 84.2551 149.833 86.3218 151 87.1551L161.5 97.6551C163.1 99.2551 164.167 98.6551 164.5 98.1551L166.5 96.1551C168.5 95.3551 167 93.8218 166 93.1551L159 85.6551C157.4 85.2551 158 84.1551 158.5 83.6551L166 76.1551C167.6 74.9551 167.333 73.9884 167 73.6551L165 71.6551C164.2 69.6551 162.333 70.8218 161.5 71.6551Z" fill="black"/>
<path d="M169.5 104.655L181.5 64.6551C183.5 56.6551 190 60.1551 188 66.1551L175.5 106.655C174.3 111.455 168 108.655 169.5 104.655Z" fill="black"/>
<path d="M161.5 71.6551L150 82.6551C148 84.2551 149.833 86.3218 151 87.1551L161.5 97.6551C163.1 99.2551 164.167 98.6551 164.5 98.1551L166.5 96.1551C168.5 95.3551 167 93.8218 166 93.1551L159 85.6551C157.4 85.2551 158 84.1551 158.5 83.6551L166 76.1551C167.6 74.9551 167.333 73.9884 167 73.6551L165 71.6551C164.2 69.6551 162.333 70.8218 161.5 71.6551Z" stroke="black"/>
<path d="M169.5 104.655L181.5 64.6551C183.5 56.6551 190 60.1551 188 66.1551L175.5 106.655C174.3 111.455 168 108.655 169.5 104.655Z" stroke="black"/>
<path d="M23 131.155L39.5 61.6551C43.5 42.1551 64 20.7551 110 27.1551H185C221.5 27.1551 233 49.1551 242 94.1551V97.1551H230L222 61.6551C220.167 53.9884 210.2 38.6551 185 38.6551H110C93 38.6551 57.9 35.6551 51.5 61.6551L35.5 131.155C30.682 158.155 64.1 187.455 92.5 128.655C94.462 125.025 99.1034 119.744 106.179 117.155C108.5 116.306 117.5 117.155 124.5 117.155H167.5C174 117.155 180.1 125.055 180.5 128.655L178.5 147.655L167.5 128.655H124.5C123.771 127.44 119 128.655 113.702 128.655C108.404 128.655 107.5 128.655 105 131.155C102.355 136.56 99.6335 141.381 96.8628 145.655C63.4957 197.135 23 169.473 23 131.155Z" fill="#ED1B76" stroke="black"/>
<path d="M116.5 73.6551H102.5V58.1551H84.5V73.6551H69.5V91.1551H84.5V105.155H102.5V91.1551H116.5V73.6551Z" fill="#ED1B76" stroke="black"/>
<circle cx="298" cy="99" r="30" fill="#ED1B76"/>
<circle cx="298" cy="99" r="14" fill="white"/>
</svg>
