<svg width="500" height="500" viewBox="0 0 500 500" fill="none" xmlns="http://www.w3.org/2000/svg">
<g clip-path="url(#clip0_2_2)">
<circle cx="250" cy="250" r="250" fill="#250DD8"/>
<path d="M298.065 380H268.896L207.199 206.438L189 155.243L210.559 149L280.31 343.789H285.383L316.373 253.342C278.15 265.917 320.892 240.151 320.892 240.151L316.373 253.342C324.238 250.755 335.531 246.544 351.329 240.151C443.908 202.692 341.184 265.124 341.184 265.124L298.065 380Z" fill="white"/>
<path d="M162 111H302.87V135.855H189.92V211.956C192.946 211.704 198.078 211.541 206.418 211.561L216.571 239.005H189.92V342.156C189.92 445.306 162 342.156 162 342.156V111Z" fill="white"/>
<path d="M292.717 239.005C361.396 227.644 430.026 219.979 292.717 214.15C267.441 213.077 247.988 212.399 233.069 212.007L243.222 239.005H292.717Z" fill="white"/>
</g>
<defs>
<clipPath id="clip0_2_2">
<rect width="500" height="500" fill="white"/>
</clipPath>
</defs>
</svg>
